HIERARCHY
ROOT Hips
{
	OFFSET 0.000000 0.000000 0.000000
	CHANNELS 6 Xposition Yposition Zposition Xrotation Yrotation Zrotation
	JOINT LeftUpLeg_virtual
	{
		OFFSET 0.000000 0.000000 0.000000
		CHANNELS 3 Xrotation Yrotation Zrotation
		JOINT LeftUpLeg
		{
			OFFSET 15.427100 -6.655098 0.678600
			CHANNELS 3 Xrotation Yrotation Zrotation
			JOINT LeftLeg
			{
				OFFSET 4.081073 -39.591068 13.024000
				CHANNELS 3 Xrotation Yrotation Zrotation
				JOINT LeftFoot
				{
					OFFSET -4.081074 -37.707932 -15.979700
					CHANNELS 3 Xrotation Yrotation Zrotation
					JOINT LeftToeBase
					{
						OFFSET 5.346399 -15.068900 20.645000
						CHANNELS 3 Xrotation Yrotation Zrotation
						JOINT LeftToe_End
						{
							OFFSET 2.754700 0.931300 11.300900
							CHANNELS 3 Xrotation Yrotation Zrotation
							End Site
							{
								OFFSET 0 0 0
							}
						}
					}
				}
			}
		}
	}
	JOINT RightUpLeg_virtual
	{
		OFFSET 0.000000 0.000000 0.000000
		CHANNELS 3 Xrotation Yrotation Zrotation
		JOINT RightUpLeg
		{
			OFFSET -15.569500 -6.655098 0.678600
			CHANNELS 3 Xrotation Yrotation Zrotation
			JOINT RightLeg
			{
				OFFSET -4.081825 -39.591045 13.023800
				CHANNELS 3 Xrotation Yrotation Zrotation
				JOINT RightFoot
				{
					OFFSET 4.081824 -37.707954 -15.979600
					CHANNELS 3 Xrotation Yrotation Zrotation
					JOINT RightToeBase
					{
						OFFSET -5.346400 -15.068900 20.645000
						CHANNELS 3 Xrotation Yrotation Zrotation
						JOINT RightToe_End
						{
							OFFSET -2.754700 0.931300 11.300900
							CHANNELS 3 Xrotation Yrotation Zrotation
							End Site
							{
								OFFSET 0 0 0
							}
						}
					}
				}
			}
		}
	}
	JOINT Spine_virtual
	{
		OFFSET 0.000000 0.000000 0.000000
		CHANNELS 3 Xrotation Yrotation Zrotation
		JOINT Spine
		{
			OFFSET -0.279200 12.230698 -2.892100
			CHANNELS 3 Xrotation Yrotation Zrotation
			JOINT Spine1
			{
				OFFSET -0.232667 10.192268 -1.242267
				CHANNELS 3 Xrotation Yrotation Zrotation
				JOINT Spine1_split
				{
					OFFSET -0.232667 10.192268 -1.242267
					CHANNELS 3 Xrotation Yrotation Zrotation
					JOINT Spine2
					{
						OFFSET -0.232667 10.192268 -1.242267
						CHANNELS 3 Xrotation Yrotation Zrotation
						JOINT Neck_virtual
						{
							OFFSET 0.000000 0.000000 0.000000
							CHANNELS 3 Xrotation Yrotation Zrotation
							JOINT Neck
							{
								OFFSET -0.418800 17.814194 8.416900
								CHANNELS 3 Xrotation Yrotation Zrotation
								JOINT Head
								{
									OFFSET 0.000000 7.031097 3.806800
									CHANNELS 3 Xrotation Yrotation Zrotation
									JOINT HeadTop_End
									{
										OFFSET 0.000000 24.646606 12.978600
										CHANNELS 3 Xrotation Yrotation Zrotation
										End Site
										{
											OFFSET 0 0 0
										}
									}
								}
							}
						}
						JOINT LeftShoulder_virtual
						{
							OFFSET 0.000000 0.000000 0.000000
							CHANNELS 3 Xrotation Yrotation Zrotation
							JOINT LeftShoulder
							{
								OFFSET 8.476499 7.247704 -3.868750
								CHANNELS 3 Xrotation Yrotation Zrotation
								JOINT LeftShoulder_split
								{
									OFFSET 8.476499 7.247704 -3.868750
									CHANNELS 3 Xrotation Yrotation Zrotation
									JOINT LeftArm
									{
										OFFSET 9.308998 -2.777710 0.208600
										CHANNELS 3 Xrotation Yrotation Zrotation
										JOINT LeftForeArm
										{
											OFFSET 29.972298 0.000000 0.000000
											CHANNELS 3 Xrotation Yrotation Zrotation
											JOINT LeftHand
											{
												OFFSET 26.026505 0.000000 0.000000
												CHANNELS 3 Xrotation Yrotation Zrotation
												End Site
												{
													OFFSET 0 0 0
												}
											}
										}
									}
								}
							}
						}
						JOINT RightShoulder_virtual
						{
							OFFSET 0.000000 0.000000 0.000000
							CHANNELS 3 Xrotation Yrotation Zrotation
							JOINT RightShoulder
							{
								OFFSET -7.570500 7.247704 -3.868750
								CHANNELS 3 Xrotation Yrotation Zrotation
								JOINT RightShoulder_split
								{
									OFFSET -7.570500 7.247704 -3.868750
									CHANNELS 3 Xrotation Yrotation Zrotation
									JOINT RightArm
									{
										OFFSET -9.308998 -2.777710 0.208500
										CHANNELS 3 Xrotation Yrotation Zrotation
										JOINT RightForeArm
										{
											OFFSET -29.972300 0.000000 0.000000
											CHANNELS 3 Xrotation Yrotation Zrotation
											JOINT RightHand
											{
												OFFSET -26.026505 0.000000 0.000000
												CHANNELS 3 Xrotation Yrotation Zrotation
												End Site
												{
													OFFSET 0 0 0
												}
											}
										}
									}
								}
							}
						}
					}
				}
			}
		}
	}
}
MOTION
Frames: 7
Frame Time: 0.03333333
-4.870115 102.936234 185.445877 0.000000 0.000000 0.000000 19.280010 6.175546 0.605639 -13.775494 9.708234 13.779935 42.152902 14.346461 4.065452 16.392509 0.714474 2.143546 7.359744 1.584423 -2.468192 0.000000 0.000000 0.000000 18.540893 11.491713 0.230235 -49.690026 -18.300751 -7.036203 36.929771 -4.729492 -17.901084 43.963411 1.975937 0.029081 10.610477 1.583778 0.338072 0.000000 0.000000 0.000000 18.225036 3.725448 2.078034 0.700566 0.287499 1.276193 -3.995836 -0.243748 0.111198 0.484527 -1.359238 0.164225 0.000000 0.000000 0.000000 -1.652890 -0.105047 -0.768352 -10.611935 0.237646 -7.415035 -25.677476 7.652328 2.352195 0.000000 0.000000 0.000000 -4.669286 0.182503 0.100666 10.688164 -4.927817 31.152312 4.898980 6.948887 -0.732986 -49.896694 -16.803864 12.149130 -40.138618 -43.088402 -8.072299 0.000000 0.000000 0.000000 -3.490269 0.311124 -0.063601 -3.510309 -18.035094 -38.270052 5.134142 2.766184 3.207050 -100.703681 11.815226 44.055902 -33.217696 55.795563 2.624833 0.000000 0.000000 0.000000 
-4.989933 98.563324 193.744080 0.000000 0.000000 0.000000 15.711310 7.292783 0.674941 -13.212329 10.096914 15.464757 42.994545 13.738276 1.863383 12.703844 0.408701 1.454706 6.709314 1.763918 -4.442029 0.000000 0.000000 0.000000 15.302873 13.400870 0.189517 -52.001632 -18.640278 -8.250804 38.684942 -2.334255 -17.153732 40.147862 0.573465 -0.667527 7.137607 1.304837 0.056233 0.000000 0.000000 0.000000 14.616209 5.838491 1.638191 1.862692 -0.148906 0.681400 -3.947204 -0.772679 0.411654 0.811435 -0.423235 0.200299 0.000000 0.000000 0.000000 -1.809296 -0.409415 -0.898729 -8.334526 0.319892 -6.965784 -27.410992 6.624924 3.301433 0.000000 0.000000 0.000000 -5.041743 -0.141113 0.052474 10.579640 -4.545009 32.326292 4.294391 7.408658 -1.069694 -47.746939 -13.459318 14.773368 -40.938672 -40.884812 -7.176775 0.000000 0.000000 0.000000 -3.623575 0.110123 0.097828 -4.394984 -18.743533 -40.451987 4.890333 2.183579 3.648487 -97.391285 13.937068 39.561542 -30.426112 51.653340 -3.964550 0.000000 0.000000 0.000000 
-5.324672 94.988899 201.371979 0.000000 0.000000 0.000000 11.595542 8.605181 0.495110 -14.154233 11.295804 16.010296 42.880611 12.687005 0.504586 8.074907 -0.422794 1.967157 5.509035 1.834113 -5.571478 0.000000 0.000000 0.000000 11.633793 15.403583 -0.022670 -51.602202 -20.760643 -9.369887 38.799375 -0.472461 -16.045250 36.835238 -0.986217 -1.488801 4.124708 0.964051 -0.113140 0.000000 0.000000 0.000000 10.617964 7.933139 0.947769 2.900839 -0.465322 0.482046 -3.759651 -1.466574 0.706742 1.113016 0.128952 0.177979 0.000000 0.000000 0.000000 -2.011470 -0.910162 -0.938445 -5.914981 0.492185 -6.169254 -27.514918 5.424009 4.444488 0.000000 0.000000 0.000000 -5.219346 -0.669614 -0.053361 10.635912 -4.070114 33.511111 3.947084 7.202701 -1.420005 -44.739983 -9.073157 16.694249 -41.392237 -39.341808 -6.340571 0.000000 0.000000 0.000000 -3.724704 -0.327568 0.287822 -4.509231 -18.982139 -41.381538 4.461095 1.386652 3.650859 -92.086844 15.471763 34.804749 -30.401145 49.673807 -6.632633 0.000000 0.000000 0.000000 
-5.826395 92.815506 208.537415 0.000000 0.000000 0.000000 7.725763 10.276685 0.137790 -15.547339 13.093843 14.988507 40.480028 11.217979 0.375414 2.892384 -1.660986 2.898293 4.054045 1.808331 -5.714746 0.000000 0.000000 0.000000 7.846292 17.488047 -0.252607 -48.622255 -24.171232 -9.831029 36.322075 0.784729 -14.683329 32.654533 -2.660327 -3.049799 4.058644 0.711073 0.011147 0.000000 0.000000 0.000000 6.540347 9.853005 0.207888 3.605822 -0.660642 0.607797 -3.529414 -2.199279 0.942294 1.195990 -0.022371 0.140966 0.000000 0.000000 0.000000 -2.237639 -1.519815 -0.894124 -3.073273 0.762787 -5.099853 -25.889931 4.314233 5.665224 0.000000 0.000000 0.000000 -5.262246 -1.315144 -0.157071 10.772090 -3.347881 34.736344 3.794429 6.597164 -1.684964 -41.934223 -4.716357 17.549783 -41.833013 -38.877976 -6.110850 0.000000 0.000000 0.000000 -3.850947 -0.930461 0.478642 -3.932533 -18.867945 -41.029045 4.219960 0.702540 3.302080 -85.852828 15.847063 30.216651 -32.417871 51.703207 -5.588953 0.000000 0.000000 0.000000 
-6.328204 92.161850 215.577774 0.000000 0.000000 0.000000 4.622611 12.117719 -0.241706 -16.577441 15.190062 12.643524 35.464378 9.095954 1.313192 -0.775834 -3.039302 2.716296 1.832891 1.732373 -4.831812 0.000000 0.000000 0.000000 4.342544 19.537900 -0.345070 -43.683424 -27.855291 -9.428370 31.685978 1.691763 -13.118149 27.901990 -3.727001 -5.423012 6.467608 0.746753 0.405852 0.000000 0.000000 0.000000 3.019859 11.436771 -0.457089 3.734756 -0.758529 0.892265 -3.413927 -2.845403 1.040571 1.333897 -0.107804 -0.193267 0.000000 0.000000 0.000000 -2.503491 -2.133742 -0.839925 0.279124 1.179006 -3.944597 -22.698324 3.375926 6.898851 0.000000 0.000000 0.000000 -5.313221 -1.972988 -0.267951 10.895655 -2.359869 36.136830 3.622145 5.818485 -1.713475 -40.252405 -1.277229 17.678749 -42.490590 -39.299795 -6.681414 0.000000 0.000000 0.000000 -4.041437 -1.586710 0.595647 -2.747120 -18.411967 -39.658380 4.026040 -0.098749 2.587529 -80.037741 15.336717 26.420640 -36.043649 55.862768 -1.306682 0.000000 0.000000 0.000000 
-6.704708 92.834961 222.417389 0.000000 0.000000 0.000000 2.291598 13.791922 -0.541878 -16.999788 17.239860 9.683875 29.000328 6.399804 2.731381 -1.317455 -4.222935 1.334776 -1.214992 1.601620 -3.252180 0.000000 0.000000 0.000000 1.360142 21.044733 -0.255204 -37.918485 -30.905636 -8.459153 25.761959 2.540897 -11.602267 23.923552 -3.795279 -7.366766 8.706935 1.038255 0.818715 0.000000 0.000000 0.000000 0.406036 12.594699 -1.035289 3.231675 -0.819418 1.107885 -3.512808 -3.338455 0.942248 1.084902 -0.026384 -0.625672 0.000000 0.000000 0.000000 -2.942790 -2.640091 -0.856414 4.006301 1.702341 -2.889256 -18.386292 2.613359 8.098410 0.000000 0.000000 0.000000 -5.506984 -2.522989 -0.422375 10.965434 -1.202598 37.743642 3.516714 5.173357 -1.290593 -40.060176 0.416128 17.513565 -43.217776 -39.691090 -7.792991 0.000000 0.000000 0.000000 -4.383987 -2.160265 0.562734 -1.191415 -17.617436 -37.820284 4.006758 -0.595417 1.630943 -75.906221 14.892876 23.320745 -40.136121 58.226980 4.429554 0.000000 0.000000 0.000000 
-6.845746 94.236160 229.261963 0.000000 0.000000 0.000000 0.595445 15.061266 -0.700920 -16.971741 19.402807 6.704391 23.241230 3.807970 4.090614 0.868129 -4.903975 0.165587 -3.370374 1.349778 -1.882086 0.000000 0.000000 0.000000 -0.792359 22.034638 -0.102705 -32.398900 -32.749217 -7.385714 19.829663 3.520421 -10.424148 21.275735 -2.984161 -7.929619 8.388850 1.377930 1.028064 0.000000 0.000000 0.000000 -1.562088 13.219942 -1.429016 2.230963 -0.898258 1.100609 -3.822150 -3.667278 0.679202 1.008632 0.040594 -0.907464 0.000000 0.000000 0.000000 -3.602685 -3.013951 -0.971046 7.702009 2.151292 -2.073630 -13.552585 1.817622 9.245058 0.000000 0.000000 0.000000 -5.875004 -2.924478 -0.605214 10.971172 0.055036 39.569140 3.393504 4.677119 -0.691474 -40.902567 0.041341 17.250864 -43.575517 -39.033247 -8.837369 0.000000 0.000000 0.000000 -4.890327 -2.588034 0.375917 0.412662 -16.504642 -36.230305 4.155266 -0.789412 0.693475 -73.939188 15.398042 21.003726 -41.935343 56.394956 8.194400 0.000000 0.000000 0.000000 
